BodoniModa-96ptItalic.ufo
<glyph name="ampersand" format="2">
  <advance width="1591"/>
  <unicode hex="0026"/>
  <outline>
    <contour>
      <point x="1100" y="-20" type="curve" smooth="yes"/>
      <point x="1258" y="-20"/>
      <point x="1360" y="53"/>
      <point x="1398" y="141" type="curve"/>
      <point x="1393" y="143" type="line"/>
      <point x="1363" y="68"/>
      <point x="1276" y="7"/>
      <point x="1204" y="7" type="curve" smooth="yes"/>
      <point x="1124" y="7"/>
      <point x="1096.14" y="73.298"/>
      <point x="1074" y="131" type="curve" smooth="yes"/>
      <point x="764" y="939" type="line" smooth="yes"/>
      <point x="709" y="1080"/>
      <point x="686" y="1170"/>
      <point x="686" y="1240" type="curve" smooth="yes"/>
      <point x="686" y="1366"/>
      <point x="769" y="1516"/>
      <point x="938" y="1516" type="curve" smooth="yes"/>
      <point x="1063" y="1516"/>
      <point x="1082" y="1379"/>
      <point x="1082" y="1256" type="curve" smooth="yes"/>
      <point x="1082" y="1122"/>
      <point x="960" y="957"/>
      <point x="773" y="876" type="curve"/>
      <point x="774" y="873" type="line"/>
      <point x="1008" y="965"/>
      <point x="1269" y="1069"/>
      <point x="1269" y="1271" type="curve" smooth="yes"/>
      <point x="1269" y="1431"/>
      <point x="1112" y="1520"/>
      <point x="938" y="1520" type="curve" smooth="yes"/>
      <point x="667" y="1520"/>
      <point x="477" y="1366"/>
      <point x="477" y="1166" type="curve" smooth="yes"/>
      <point x="477" y="1096"/>
      <point x="493" y="1023"/>
      <point x="527" y="939" type="curve" smooth="yes"/>
      <point x="822" y="182" type="line" smooth="yes"/>
      <point x="874" y="45"/>
      <point x="954" y="-20"/>
    </contour>
    <contour>
      <point x="479" y="-20" type="curve" smooth="yes"/>
      <point x="1029" y="-20"/>
      <point x="1572" y="463"/>
      <point x="1572" y="742" type="curve" smooth="yes"/>
      <point x="1572" y="834"/>
      <point x="1516" y="898"/>
      <point x="1420" y="898" type="curve" smooth="yes"/>
      <point x="1346" y="898"/>
      <point x="1296" y="845"/>
      <point x="1296" y="784" type="curve" smooth="yes"/>
      <point x="1296" y="714"/>
      <point x="1352" y="660"/>
      <point x="1432" y="660" type="curve" smooth="yes"/>
      <point x="1501" y="660"/>
      <point x="1570" y="692"/>
      <point x="1570" y="742" type="curve"/>
      <point x="1568" y="742" type="line"/>
      <point x="1568" y="462"/>
      <point x="1024" y="-6"/>
      <point x="518" y="-6" type="curve" smooth="yes"/>
      <point x="310" y="-6"/>
      <point x="260" y="211"/>
      <point x="260" y="339" type="curve" smooth="yes"/>
      <point x="260" y="548"/>
      <point x="399" y="704"/>
      <point x="594" y="797" type="curve"/>
      <point x="593" y="799" type="line"/>
      <point x="306" y="685"/>
      <point x="40" y="624"/>
      <point x="40" y="320" type="curve" smooth="yes"/>
      <point x="40" y="114"/>
      <point x="193" y="-20"/>
    </contour>
  </outline>
</glyph>
<glyph name="parenleft" format="2">
  <advance width="723"/>
  <unicode hex="0028"/>
  <outline>
    <contour>
      <point x="546" y="-340" type="curve"/>
      <point x="548" y="-336" type="line"/>
      <point x="400" y="-196"/>
      <point x="348" y="-34"/>
      <point x="348" y="330" type="curve" smooth="yes"/>
      <point x="348" y="814"/>
      <point x="660" y="1436"/>
      <point x="968" y="1596" type="curve"/>
      <point x="966" y="1600" type="line"/>
      <point x="580" y="1440"/>
      <point x="164" y="956"/>
      <point x="164" y="370" type="curve" smooth="yes"/>
      <point x="164" y="24"/>
      <point x="320" y="-240"/>
    </contour>
  </outline>
</glyph>
<glyph name="nine" format="2">
  <advance width="1119"/>
  <unicode hex="0039"/>
  <outline>
    <contour>
      <point x="-10" y="-20" type="line"/>
      <point x="556" y="-20"/>
      <point x="1020" y="634"/>
      <point x="1020" y="1060" type="curve" smooth="yes"/>
      <point x="1020" y="1380"/>
      <point x="854" y="1520"/>
      <point x="632" y="1520" type="curve" smooth="yes"/>
      <point x="330" y="1520"/>
      <point x="40" y="1200"/>
      <point x="40" y="900" type="curve" smooth="yes"/>
      <point x="40" y="620"/>
      <point x="196" y="520"/>
      <point x="358" y="520" type="curve" smooth="yes"/>
      <point x="680" y="520"/>
      <point x="824" y="926"/>
      <point x="824" y="1160" type="curve"/>
      <point x="820" y="1160" type="line"/>
      <point x="820" y="940"/>
      <point x="682" y="542"/>
      <point x="402" y="542" type="curve" smooth="yes"/>
      <point x="284" y="542"/>
      <point x="240" y="692"/>
      <point x="240" y="900" type="curve" smooth="yes"/>
      <point x="240" y="1148"/>
      <point x="408" y="1516"/>
      <point x="626" y="1516" type="curve" smooth="yes"/>
      <point x="764" y="1516"/>
      <point x="820" y="1348"/>
      <point x="820" y="1160" type="curve"/>
      <point x="818" y="1080" type="line"/>
      <point x="818" y="616"/>
      <point x="418" y="-16"/>
      <point x="-10" y="-16" type="curve"/>
    </contour>
  </outline>
</glyph>
<glyph name="B" format="2">
  <advance width="1250"/>
  <unicode hex="0042"/>
  <anchor x="416" y="0" name="bottom"/>
  <anchor x="714" y="1500" name="top"/>
  <outline>
    <contour>
      <point x="-90" y="0" type="line"/>
      <point x="530" y="0" type="line" smooth="yes"/>
      <point x="872" y="0"/>
      <point x="1150" y="180"/>
      <point x="1150" y="480" type="curve" smooth="yes"/>
      <point x="1150" y="670"/>
      <point x="1000" y="763"/>
      <point x="742" y="771" type="curve"/>
      <point x="1031" y="799"/>
      <point x="1260" y="988"/>
      <point x="1260" y="1210" type="curve" smooth="yes"/>
      <point x="1260" y="1410"/>
      <point x="1142" y="1500"/>
      <point x="820" y="1500" type="curve" smooth="yes"/>
      <point x="260" y="1500" type="line"/>
      <point x="260" y="1496" type="line"/>
      <point x="439" y="1496" type="line"/>
      <point x="91" y="4" type="line"/>
      <point x="-90" y="4" type="line"/>
    </contour>
    <contour>
      <point x="281" y="4" type="line"/>
      <point x="629" y="1496" type="line"/>
      <point x="820" y="1496" type="line" smooth="yes"/>
      <point x="992" y="1496"/>
      <point x="1060" y="1368"/>
      <point x="1060" y="1230" type="curve" smooth="yes"/>
      <point x="1060" y="932"/>
      <point x="822" y="772"/>
      <point x="670" y="772" type="curve" smooth="yes"/>
      <point x="399" y="772" type="line"/>
      <point x="398" y="768" type="line"/>
      <point x="682" y="768" type="line" smooth="yes"/>
      <point x="834" y="768"/>
      <point x="930" y="698"/>
      <point x="930" y="520" type="curve" smooth="yes"/>
      <point x="930" y="262"/>
      <point x="772" y="4"/>
      <point x="530" y="4" type="curve" smooth="yes"/>
    </contour>
  </outline>
</glyph>
<glyph name="I" format="2">
  <advance width="699"/>
  <unicode hex="0049"/>
  <anchor x="238" y="0" name="bottom"/>
  <anchor x="238" y="0" name="ogonek"/>
  <anchor x="572" y="1500" name="top"/>
  <outline>
    <contour>
      <point x="140" y="0" type="line"/>
      <point x="330" y="0" type="line"/>
      <point x="670" y="1500" type="line"/>
      <point x="480" y="1500" type="line"/>
    </contour>
    <contour>
      <point x="-80" y="0" type="line"/>
      <point x="560" y="0" type="line"/>
      <point x="560" y="4" type="line"/>
      <point x="-80" y="4" type="line"/>
    </contour>
    <contour>
      <point x="250" y="1496" type="line"/>
      <point x="890" y="1496" type="line"/>
      <point x="890" y="1500" type="line"/>
      <point x="250" y="1500" type="line"/>
    </contour>
  </outline>
</glyph>
<glyph name="W" format="2">
  <advance width="1925"/>
  <unicode hex="0057"/>
  <anchor x="886" y="0" name="bottom"/>
  <anchor x="1196" y="1500" name="top"/>
  <outline>
    <contour>
      <point x="1058" y="-20" type="line"/>
      <point x="1062" y="-20" type="line"/>
      <point x="1928" y="1500" type="line"/>
      <point x="1924" y="1500" type="line"/>
      <point x="1224" y="274" type="line"/>
      <point x="1136" y="1500" type="line"/>
      <point x="946" y="1500" type="line"/>
    </contour>
    <contour>
      <point x="536" y="-20" type="line"/>
      <point x="540" y="-20" type="line"/>
      <point x="1026" y="834" type="line"/>
      <point x="1022" y="834" type="line"/>
      <point x="702" y="274" type="line"/>
      <point x="614" y="1500" type="line"/>
      <point x="424" y="1500" type="line"/>
    </contour>
    <contour>
      <point x="240" y="1496" type="line"/>
      <point x="1650" y="1496" type="line"/>
      <point x="1650" y="1500" type="line"/>
      <point x="240" y="1500" type="line"/>
    </contour>
    <contour>
      <point x="1104" y="834" type="line"/>
      <point x="1108" y="834" type="line"/>
      <point x="1488" y="1500" type="line"/>
      <point x="1484" y="1500" type="line"/>
    </contour>
    <contour>
      <point x="1746" y="1496" type="line"/>
      <point x="2126" y="1496" type="line"/>
      <point x="2126" y="1500" type="line"/>
      <point x="1746" y="1500" type="line"/>
    </contour>
  </outline>
</glyph>
<glyph name="X" format="2">
  <advance width="1449"/>
  <unicode hex="0058"/>
  <anchor x="596" y="0" name="bottom"/>
  <anchor x="956" y="1500" name="top"/>
  <outline>
    <contour>
      <point x="952" y="0" type="line"/>
      <point x="1182" y="0" type="line"/>
      <point x="672" y="1500" type="line"/>
      <point x="450" y="1500" type="line"/>
    </contour>
    <contour>
      <point x="-100" y="0" type="line"/>
      <point x="380" y="0" type="line"/>
      <point x="380" y="4" type="line"/>
      <point x="-100" y="4" type="line"/>
    </contour>
    <contour>
      <point x="122" y="0" type="line"/>
      <point x="128" y="0" type="line"/>
      <point x="782" y="834" type="line"/>
      <point x="776" y="834" type="line"/>
    </contour>
    <contour>
      <point x="760" y="0" type="line"/>
      <point x="1320" y="0" type="line"/>
      <point x="1320" y="4" type="line"/>
      <point x="760" y="4" type="line"/>
    </contour>
    <contour>
      <point x="310" y="1496" type="line"/>
      <point x="870" y="1496" type="line"/>
      <point x="870" y="1500" type="line"/>
      <point x="310" y="1500" type="line"/>
    </contour>
    <contour>
      <point x="772" y="754" type="line"/>
      <point x="778" y="754" type="line"/>
      <point x="1352" y="1496" type="line"/>
      <point x="1346" y="1496" type="line"/>
    </contour>
    <contour>
      <point x="1130" y="1496" type="line"/>
      <point x="1570" y="1496" type="line"/>
      <point x="1570" y="1500" type="line"/>
      <point x="1130" y="1500" type="line"/>
    </contour>
  </outline>
</glyph>
<glyph name="bracketright" format="2">
  <advance width="649"/>
  <unicode hex="005D"/>
  <outline>
    <contour>
      <point x="-191" y="-300" type="line"/>
      <point x="289" y="-300" type="line"/>
      <point x="709" y="1560" type="line"/>
      <point x="229" y="1560" type="line"/>
      <point x="229" y="1556" type="line"/>
      <point x="527" y="1556" type="line"/>
      <point x="111" y="-296" type="line"/>
      <point x="-191" y="-296" type="line"/>
    </contour>
  </outline>
</glyph>
<glyph name="e" format="2">
  <advance width="913"/>
  <unicode hex="0065"/>
  <anchor x="400" y="0" name="bottom"/>
  <anchor x="444" y="0" name="ogonek"/>
  <anchor x="540" y="920" name="top"/>
  <outline>
    <contour>
      <point x="351" y="-20" type="curve" smooth="yes"/>
      <point x="544" y="-20"/>
      <point x="685" y="106"/>
      <point x="763" y="258" type="curve"/>
      <point x="760" y="259" type="line"/>
      <point x="682" y="109"/>
      <point x="543" y="-13"/>
      <point x="366" y="-13" type="curve" smooth="yes"/>
      <point x="273" y="-13"/>
      <point x="203" y="37"/>
      <point x="203" y="205" type="curve" smooth="yes"/>
      <point x="203" y="488"/>
      <point x="374" y="936"/>
      <point x="602" y="936" type="curve" smooth="yes"/>
      <point x="674" y="936"/>
      <point x="695" y="865"/>
      <point x="695" y="797" type="curve" smooth="yes"/>
      <point x="695" y="529"/>
      <point x="508" y="432"/>
      <point x="205" y="411" type="curve"/>
      <point x="205" y="407" type="line"/>
      <point x="508" y="427"/>
      <point x="843" y="534"/>
      <point x="843" y="754" type="curve" smooth="yes"/>
      <point x="843" y="859"/>
      <point x="760" y="940"/>
      <point x="616" y="940" type="curve" smooth="yes"/>
      <point x="295" y="940"/>
      <point x="55" y="607"/>
      <point x="55" y="300" type="curve" smooth="yes"/>
      <point x="55" y="110"/>
      <point x="159" y="-20"/>
    </contour>
  </outline>
</glyph>
<glyph name="h" format="2">
  <advance width="1106"/>
  <unicode hex="0068"/>
  <anchor x="483" y="0" name="bottom"/>
  <anchor x="111" y="0" name="cedilla"/>
  <anchor x="811" y="1390" name="top"/>
  <outline>
    <contour>
      <point x="30" y="0" type="line"/>
      <point x="195" y="0" type="line"/>
      <point x="595" y="1500" type="line"/>
      <point x="265" y="1500" type="line"/>
      <point x="265" y="1496" type="line"/>
      <point x="431" y="1496" type="line"/>
    </contour>
    <contour>
      <point x="755" y="-20" type="curve" smooth="yes"/>
      <point x="903" y="-20"/>
      <point x="980" y="76"/>
      <point x="1066" y="306" type="curve"/>
      <point x="1063" y="307" type="line"/>
      <point x="978" y="80"/>
      <point x="897" y="-11"/>
      <point x="782" y="-11" type="curve" smooth="yes"/>
      <point x="756" y="-11"/>
      <point x="741" y="0"/>
      <point x="741" y="29" type="curve" smooth="yes"/>
      <point x="741" y="39"/>
      <point x="743.049" y="52.698"/>
      <point x="746" y="63" type="curve" smooth="yes"/>
      <point x="911" y="639" type="line" smooth="yes"/>
      <point x="957" y="801"/>
      <point x="919" y="939"/>
      <point x="746" y="939" type="curve" smooth="yes"/>
      <point x="529" y="939"/>
      <point x="328" y="521"/>
      <point x="263" y="266" type="curve"/>
      <point x="265" y="266" type="line"/>
      <point x="353" y="592"/>
      <point x="557" y="916"/>
      <point x="698" y="916" type="curve" smooth="yes"/>
      <point x="810" y="916"/>
      <point x="791.848" y="790.336"/>
      <point x="741" y="616" type="curve" smooth="yes"/>
      <point x="615" y="184" type="line" smooth="yes"/>
      <point x="605.429" y="151.185"/>
      <point x="599" y="123"/>
      <point x="599" y="102" type="curve" smooth="yes"/>
      <point x="599" y="26"/>
      <point x="661" y="-20"/>
    </contour>
  </outline>
</glyph>
<glyph name="j" format="2">
  <advance width="500"/>
  <unicode hex="006A"/>
  <anchor x="-226" y="-500" name="bottom"/>
  <outline>
    <contour>
      <point x="-229" y="-520" type="curve" smooth="yes"/>
      <point x="-9" y="-520"/>
      <point x="136.58" y="-274.026"/>
      <point x="201" y="-23" type="curve" smooth="yes"/>
      <point x="443" y="920" type="line"/>
      <point x="137" y="920" type="line"/>
      <point x="137" y="916" type="line"/>
      <point x="279" y="916" type="line"/>
      <point x="32" y="-87" type="line" smooth="yes"/>
      <point x="-25.275" y="-319.582"/>
      <point x="-89" y="-516"/>
      <point x="-229" y="-516" type="curve" smooth="yes"/>
      <point x="-322" y="-516"/>
      <point x="-421" y="-467"/>
      <point x="-421" y="-377" type="curve"/>
      <point x="-423" y="-377" type="line"/>
      <point x="-423" y="-427"/>
      <point x="-375" y="-465"/>
      <point x="-317" y="-465" type="curve" smooth="yes"/>
      <point x="-250" y="-465"/>
      <point x="-217" y="-417"/>
      <point x="-217" y="-366" type="curve" smooth="yes"/>
      <point x="-217" y="-306"/>
      <point x="-261" y="-268"/>
      <point x="-321" y="-268" type="curve" smooth="yes"/>
      <point x="-377" y="-268"/>
      <point x="-425" y="-305"/>
      <point x="-425" y="-377" type="curve" smooth="yes"/>
      <point x="-425" y="-470"/>
      <point x="-322" y="-520"/>
    </contour>
    <contour>
      <point x="441" y="1279" type="curve" smooth="yes"/>
      <point x="507" y="1279"/>
      <point x="560" y="1334"/>
      <point x="560" y="1400" type="curve" smooth="yes"/>
      <point x="560" y="1466"/>
      <point x="507" y="1520"/>
      <point x="441" y="1520" type="curve" smooth="yes"/>
      <point x="375" y="1520"/>
      <point x="321" y="1466"/>
      <point x="321" y="1400" type="curve" smooth="yes"/>
      <point x="321" y="1334"/>
      <point x="375" y="1279"/>
    </contour>
  </outline>
</glyph>
<glyph name="n" format="2">
  <advance width="1149"/>
  <unicode hex="006E"/>
  <anchor x="476" y="0" name="bottom"/>
  <anchor x="136" y="0" name="cedilla"/>
  <anchor x="626" y="920" name="top"/>
  <outline>
    <contour>
      <point x="763" y="-20" type="curve" smooth="yes"/>
      <point x="910" y="-20"/>
      <point x="988" y="76"/>
      <point x="1074" y="306" type="curve"/>
      <point x="1071" y="307" type="line"/>
      <point x="986" y="80"/>
      <point x="906" y="-11"/>
      <point x="786" y="-11" type="curve" smooth="yes"/>
      <point x="756" y="-11"/>
      <point x="748" y="6"/>
      <point x="748" y="27" type="curve" smooth="yes"/>
      <point x="748" y="37"/>
      <point x="750" y="51"/>
      <point x="754" y="63" type="curve" smooth="yes"/>
      <point x="918" y="639" type="line" smooth="yes"/>
      <point x="964" y="800"/>
      <point x="926" y="939"/>
      <point x="753" y="939" type="curve" smooth="yes"/>
      <point x="541" y="939"/>
      <point x="327" y="512"/>
      <point x="271" y="266" type="curve"/>
      <point x="273" y="266" type="line"/>
      <point x="349" y="573"/>
      <point x="570" y="917"/>
      <point x="708" y="917" type="curve" smooth="yes"/>
      <point x="823" y="917"/>
      <point x="795" y="771"/>
      <point x="749" y="616" type="curve" smooth="yes"/>
      <point x="618" y="174" type="line" smooth="yes"/>
      <point x="612" y="156"/>
      <point x="606" y="135"/>
      <point x="606" y="106" type="curve" smooth="yes"/>
      <point x="606" y="20"/>
      <point x="659" y="-20"/>
    </contour>
    <contour>
      <point x="45" y="0" type="line"/>
      <point x="210" y="0" type="line"/>
      <point x="430" y="920" type="line"/>
      <point x="120" y="920" type="line"/>
      <point x="120" y="916" type="line"/>
      <point x="264" y="916" type="line"/>
    </contour>
  </outline>
</glyph>
<glyph name="q" format="2">
  <advance width="995"/>
  <unicode hex="0071"/>
  <anchor x="221" y="0" name="bottom"/>
  <anchor x="501" y="920" name="top"/>
  <outline>
    <contour>
      <point x="408" y="-500" type="line"/>
      <point x="565" y="-500" type="line"/>
      <point x="952" y="940" type="line"/>
      <point x="785" y="900" type="line"/>
      <point x="694" y="558" type="line"/>
      <point x="684" y="495" type="line"/>
      <point x="672" y="429"/>
      <point x="642" y="324"/>
      <point x="617" y="271" type="curve"/>
    </contour>
    <contour>
      <point x="248" y="-500" type="line"/>
      <point x="738" y="-500" type="line"/>
      <point x="738" y="-496" type="line"/>
      <point x="248" y="-496" type="line"/>
    </contour>
    <contour>
      <point x="303" y="-20" type="curve" smooth="yes"/>
      <point x="545" y="-20"/>
      <point x="700" y="382"/>
      <point x="700" y="648" type="curve" smooth="yes"/>
      <point x="700" y="802"/>
      <point x="677" y="940"/>
      <point x="537" y="940" type="curve" smooth="yes"/>
      <point x="301" y="940"/>
      <point x="50" y="611"/>
      <point x="50" y="305" type="curve" smooth="yes"/>
      <point x="50" y="100"/>
      <point x="124" y="-20"/>
    </contour>
    <contour>
      <point x="338" y="-2" type="curve" smooth="yes"/>
      <point x="254" y="-2"/>
      <point x="202" y="82"/>
      <point x="202" y="225" type="curve" smooth="yes"/>
      <point x="202" y="485"/>
      <point x="383" y="930"/>
      <point x="556" y="930" type="curve" smooth="yes"/>
      <point x="668" y="930"/>
      <point x="696" y="804"/>
      <point x="696" y="648" type="curve" smooth="yes"/>
      <point x="696" y="380"/>
      <point x="536" y="-2"/>
    </contour>
  </outline>
</glyph>
<glyph name="r" format="2">
  <advance width="889"/>
  <unicode hex="0072"/>
  <anchor x="131" y="0" name="bottom"/>
  <anchor x="131" y="0" name="cedilla"/>
  <anchor x="513" y="920" name="top"/>
  <outline>
    <contour>
      <point x="40" y="0" type="line"/>
      <point x="198" y="0" type="line"/>
      <point x="418" y="920" type="line"/>
      <point x="112" y="920" type="line"/>
      <point x="112" y="916" type="line"/>
      <point x="268" y="916" type="line"/>
    </contour>
    <contour>
      <point x="276" y="346" type="curve"/>
      <point x="280" y="346" type="line"/>
      <point x="338" y="582"/>
      <point x="444" y="935"/>
      <point x="645" y="935" type="curve" smooth="yes"/>
      <point x="735" y="935"/>
      <point x="786" y="878"/>
      <point x="786" y="813" type="curve"/>
      <point x="788" y="813" type="line"/>
      <point x="788" y="863"/>
      <point x="741" y="901"/>
      <point x="686" y="901" type="curve" smooth="yes"/>
      <point x="617" y="901"/>
      <point x="578" y="861"/>
      <point x="578" y="807" type="curve" smooth="yes"/>
      <point x="578" y="744"/>
      <point x="621" y="696"/>
      <point x="687" y="696" type="curve" smooth="yes"/>
      <point x="753" y="696"/>
      <point x="790" y="749"/>
      <point x="790" y="813" type="curve" smooth="yes"/>
      <point x="790" y="881"/>
      <point x="736" y="939"/>
      <point x="645" y="939" type="curve" smooth="yes"/>
      <point x="442" y="939"/>
      <point x="333" y="585"/>
    </contour>
  </outline>
</glyph>
<glyph name="t" format="2">
  <advance width="642"/>
  <unicode hex="0074"/>
  <anchor x="268" y="0" name="bottom"/>
  <anchor x="433" y="1120" name="top"/>
  <anchor x="557" y="960" name="topright"/>
  <outline>
    <contour>
      <point x="272" y="-20" type="curve" smooth="yes"/>
      <point x="429" y="-20"/>
      <point x="542" y="106"/>
      <point x="628" y="326" type="curve"/>
      <point x="625" y="327" type="line"/>
      <point x="539" y="108"/>
      <point x="427" y="-14"/>
      <point x="282" y="-14" type="curve" smooth="yes"/>
      <point x="241" y="-14"/>
      <point x="220" y="0"/>
      <point x="220" y="22" type="curve" smooth="yes"/>
      <point x="220" y="40"/>
      <point x="225" y="59"/>
      <point x="229" y="73" type="curve" smooth="yes"/>
      <point x="517" y="1120" type="line"/>
      <point x="357" y="1120" type="line"/>
      <point x="113" y="220" type="line" smooth="yes"/>
      <point x="102.206" y="180.187"/>
      <point x="95" y="137"/>
      <point x="95" y="116" type="curve" smooth="yes"/>
      <point x="95" y="47"/>
      <point x="148" y="-20"/>
    </contour>
    <contour>
      <point x="102" y="916" type="line"/>
      <point x="642" y="916" type="line"/>
      <point x="642" y="920" type="line"/>
      <point x="102" y="920" type="line"/>
    </contour>
  </outline>
</glyph>
<glyph name="braceright" format="2">
  <advance width="543"/>
  <unicode hex="007D"/>
  <outline>
    <contour>
      <point x="-80" y="-300" type="line"/>
      <point x="250" y="-300"/>
      <point x="380" y="-120"/>
      <point x="380" y="118" type="curve" smooth="yes"/>
      <point x="380" y="292"/>
      <point x="344" y="340"/>
      <point x="344" y="446" type="curve" smooth="yes"/>
      <point x="344" y="548"/>
      <point x="454" y="606"/>
      <point x="514" y="626" type="curve"/>
      <point x="514" y="630" type="line"/>
      <point x="366" y="610"/>
      <point x="176" y="524"/>
      <point x="176" y="358" type="curve" smooth="yes"/>
      <point x="176" y="198"/>
      <point x="194" y="138"/>
      <point x="194" y="26" type="curve" smooth="yes"/>
      <point x="194" y="-140"/>
      <point x="104" y="-296"/>
      <point x="-80" y="-296" type="curve"/>
    </contour>
    <contour>
      <point x="514" y="628" type="curve"/>
      <point x="514" y="632" type="line"/>
      <point x="454" y="652"/>
      <point x="414" y="688"/>
      <point x="414" y="770" type="curve" smooth="yes"/>
      <point x="414" y="896"/>
      <point x="674" y="1106"/>
      <point x="674" y="1340" type="curve" smooth="yes"/>
      <point x="674" y="1498"/>
      <point x="590" y="1560"/>
      <point x="340" y="1560" type="curve"/>
      <point x="340" y="1556" type="line"/>
      <point x="464" y="1556"/>
      <point x="488" y="1458"/>
      <point x="488" y="1352" type="curve" smooth="yes"/>
      <point x="488" y="1200"/>
      <point x="300" y="1020"/>
      <point x="300" y="820" type="curve" smooth="yes"/>
      <point x="300" y="694"/>
      <point x="366" y="648"/>
    </contour>
  </outline>
</glyph>
<glyph name="exclamdown" format="2">
  <advance width="637"/>
  <unicode hex="00A1"/>
  <outline>
    <contour>
      <point x="170" y="-476" type="curve" smooth="yes"/>
      <point x="268" y="-476"/>
      <point x="298" y="-390"/>
      <point x="298" y="-278" type="curve" smooth="yes"/>
      <point x="298" y="-26"/>
      <point x="322" y="324"/>
      <point x="382" y="624" type="curve"/>
      <point x="378" y="624" type="line"/>
      <point x="298" y="324"/>
      <point x="102" y="-126"/>
      <point x="62" y="-338" type="curve" smooth="yes"/>
      <point x="46" y="-420"/>
      <point x="100" y="-476"/>
    </contour>
    <contour>
      <point x="460" y="824" type="curve" smooth="yes"/>
      <point x="526" y="824"/>
      <point x="578" y="876"/>
      <point x="578" y="942" type="curve" smooth="yes"/>
      <point x="578" y="1008"/>
      <point x="526" y="1060"/>
      <point x="460" y="1060" type="curve" smooth="yes"/>
      <point x="394" y="1060"/>
      <point x="342" y="1008"/>
      <point x="342" y="942" type="curve" smooth="yes"/>
      <point x="342" y="876"/>
      <point x="394" y="824"/>
    </contour>
  </outline>
</glyph>
<glyph name="currency" format="2">
  <advance width="1140"/>
  <unicode hex="00A4"/>
  <outline>
    <contour>
      <point x="335" y="310" type="curve" smooth="yes"/>
      <point x="617" y="310"/>
      <point x="840" y="520"/>
      <point x="898" y="770" type="curve" smooth="yes"/>
      <point x="956" y="1020"/>
      <point x="829" y="1229"/>
      <point x="547" y="1229" type="curve" smooth="yes"/>
      <point x="265" y="1229"/>
      <point x="40" y="1020"/>
      <point x="-18" y="770" type="curve" smooth="yes"/>
      <point x="-76" y="520"/>
      <point x="53" y="310"/>
    </contour>
    <contour>
      <point x="-157" y="282" type="line"/>
      <point x="39" y="441" type="line"/>
      <point x="37" y="444" type="line"/>
      <point x="-158" y="285" type="line"/>
    </contour>
    <contour>
      <point x="812" y="283" type="line"/>
      <point x="815" y="286" type="line"/>
      <point x="695" y="444" type="line"/>
      <point x="691" y="441" type="line"/>
    </contour>
    <contour>
      <point x="336" y="314" type="curve" smooth="yes"/>
      <point x="57" y="314"/>
      <point x="-71" y="522"/>
      <point x="-14" y="770" type="curve" smooth="yes"/>
      <point x="43" y="1018"/>
      <point x="267" y="1225"/>
      <point x="546" y="1225" type="curve" smooth="yes"/>
      <point x="826" y="1225"/>
      <point x="951" y="1018"/>
      <point x="894" y="770" type="curve" smooth="yes"/>
      <point x="837" y="522"/>
      <point x="616" y="314"/>
    </contour>
    <contour>
      <point x="187" y="1095" type="line"/>
      <point x="191" y="1098" type="line"/>
      <point x="69" y="1257" type="line"/>
      <point x="65" y="1254" type="line"/>
    </contour>
    <contour>
      <point x="845" y="1096" type="line"/>
      <point x="1040" y="1254" type="line"/>
      <point x="1037" y="1256" type="line"/>
      <point x="843" y="1099" type="line"/>
    </contour>
  </outline>
</glyph>
<glyph name="twosuperior" format="2">
  <advance width="939"/>
  <unicode hex="00B2"/>
  <outline>
    <contour>
      <point x="388.8" y="914" type="line"/>
      <point x="934.8" y="914" type="line"/>
      <point x="976.8" y="1112" type="line"/>
      <point x="974.4" y="1112" type="line"/>
      <point x="955.2" y="1022" type="line"/>
      <point x="448.2" y="1022" type="line"/>
      <point x="849.6" y="1340" type="line" smooth="yes"/>
      <point x="920.4" y="1396.4"/>
      <point x="1082.4" y="1514.6"/>
      <point x="1082.4" y="1634.6" type="curve" smooth="yes"/>
      <point x="1082.4" y="1742.6"/>
      <point x="997.2" y="1826"/>
      <point x="852" y="1826" type="curve" smooth="yes"/>
      <point x="672.6" y="1826"/>
      <point x="550.2" y="1686.8"/>
      <point x="550.2" y="1546.4" type="curve" smooth="yes"/>
      <point x="550.2" y="1496"/>
      <point x="582" y="1468.4"/>
      <point x="624" y="1468.4" type="curve" smooth="yes"/>
      <point x="666" y="1468.4"/>
      <point x="699" y="1497.2"/>
      <point x="699" y="1545.2" type="curve" smooth="yes"/>
      <point x="699" y="1587.2"/>
      <point x="664.2" y="1612.4"/>
      <point x="628.8" y="1612.4" type="curve" smooth="yes"/>
      <point x="589.2" y="1612.4"/>
      <point x="551.4" y="1582.4"/>
      <point x="551.4" y="1546.4" type="curve"/>
      <point x="552.6" y="1546.4" type="line"/>
      <point x="552.6" y="1684.4"/>
      <point x="678.6" y="1816.4"/>
      <point x="816" y="1816.4" type="curve" smooth="yes"/>
      <point x="925.2" y="1816.4"/>
      <point x="962.4" y="1719.8"/>
      <point x="962.4" y="1622" type="curve" smooth="yes"/>
      <point x="962.4" y="1485.2"/>
      <point x="864" y="1353.2"/>
      <point x="754.8" y="1267.4" type="curve" smooth="yes"/>
      <point x="405.6" y="992" type="line"/>
    </contour>
  </outline>
</glyph>
<glyph name="micro" format="2">
  <advance width="1131"/>
  <unicode hex="00B5"/>
  <anchor x="376" y="0" name="bottom"/>
  <anchor x="712" y="0" name="ogonek"/>
  <anchor x="496" y="920" name="top"/>
  <outline>
    <contour>
      <point x="1050" y="307" type="line"/>
      <point x="965" y="80"/>
      <point x="884" y="-12"/>
      <point x="766" y="-12" type="curve" smooth="yes"/>
      <point x="741" y="-12"/>
      <point x="729" y="5"/>
      <point x="729" y="26" type="curve" smooth="yes"/>
      <point x="729" y="36"/>
      <point x="730" y="50"/>
      <point x="733" y="62" type="curve" smooth="yes"/>
      <point x="961" y="920" type="line"/>
      <point x="792" y="920" type="line"/>
      <point x="724" y="639" type="line" smooth="yes"/>
      <point x="645" y="336"/>
      <point x="429" y="2"/>
      <point x="294" y="2" type="curve" smooth="yes"/>
      <point x="174" y="2"/>
      <point x="210" y="147"/>
      <point x="246" y="305" type="curve" smooth="yes"/>
      <point x="390" y="920" type="line"/>
      <point x="79" y="920" type="line"/>
      <point x="79" y="916" type="line"/>
      <point x="219" y="916" type="line"/>
      <point x="-44" y="-242" type="line" smooth="yes"/>
      <point x="-83" y="-413"/>
      <point x="26" y="-520"/>
      <point x="167" y="-520" type="curve" smooth="yes"/>
      <point x="283" y="-520"/>
      <point x="334" y="-458"/>
      <point x="334" y="-380" type="curve" smooth="yes"/>
      <point x="334" y="-304"/>
      <point x="277" y="-246"/>
      <point x="211" y="-246" type="curve" smooth="yes"/>
      <point x="145" y="-246"/>
      <point x="78" y="-306"/>
      <point x="78" y="-382" type="curve" smooth="yes"/>
      <point x="78" y="-449"/>
      <point x="113" y="-502"/>
      <point x="155" y="-514" type="curve"/>
      <point x="24" y="-506"/>
      <point x="-77" y="-406"/>
      <point x="-40" y="-242" type="curve" smooth="yes"/>
      <point x="66" y="222" type="line"/>
      <point x="49" y="85"/>
      <point x="79" y="-20"/>
      <point x="248" y="-20" type="curve" smooth="yes"/>
      <point x="434" y="-20"/>
      <point x="623" y="310"/>
      <point x="705" y="559" type="curve"/>
      <point x="611" y="170" type="line" smooth="yes"/>
      <point x="606" y="149"/>
      <point x="602" y="121"/>
      <point x="602" y="105" type="curve" smooth="yes"/>
      <point x="602" y="45"/>
      <point x="656" y="-20"/>
      <point x="760" y="-20" type="curve" smooth="yes"/>
      <point x="884" y="-20"/>
      <point x="967" y="76"/>
      <point x="1053" y="306" type="curve"/>
    </contour>
  </outline>
</glyph>
<glyph name="onesuperior" format="2">
  <advance width="1059"/>
  <unicode hex="00B9"/>
  <outline>
    <contour>
      <point x="559" y="912" type="line"/>
      <point x="673" y="912" type="line"/>
      <point x="877" y="1812" type="line"/>
      <point x="621.4" y="1812" type="line"/>
      <point x="621.4" y="1809.6" type="line"/>
      <point x="761.8" y="1809.6" type="line"/>
    </contour>
    <contour>
      <point x="427" y="912" type="line"/>
      <point x="805" y="912" type="line"/>
      <point x="805" y="914.4" type="line"/>
      <point x="427" y="914.4" type="line"/>
    </contour>
  </outline>
</glyph>
<glyph name="onequarter" format="2">
  <advance width="1281"/>
  <unicode hex="00BC"/>
  <outline>
    <contour>
      <point x="-34" y="-200" type="line"/>
      <point x="-30" y="-200" type="line"/>
      <point x="1272" y="1300" type="line"/>
      <point x="1268" y="1300" type="line"/>
    </contour>
    <contour>
      <point x="350" y="1612" type="line"/>
      <point x="350" y="1610" type="line"/>
      <point x="491" y="1610" type="line"/>
      <point x="288" y="714" type="line"/>
      <point x="156" y="714" type="line"/>
      <point x="156" y="712" type="line"/>
      <point x="534" y="712" type="line"/>
      <point x="534" y="714" type="line"/>
      <point x="402" y="714" type="line"/>
      <point x="606" y="1612" type="line"/>
    </contour>
    <contour>
      <point x="1074" y="694" type="line"/>
      <point x="522" y="51" type="line"/>
      <point x="930" y="51" type="line"/>
      <point x="876" y="-204" type="line"/>
      <point x="774" y="-204" type="line"/>
      <point x="774" y="-206" type="line"/>
      <point x="1092" y="-206" type="line"/>
      <point x="1092" y="-204" type="line"/>
      <point x="990" y="-204" type="line"/>
      <point x="1045" y="51" type="line"/>
      <point x="1182" y="51" type="line"/>
      <point x="1182" y="53" type="line"/>
      <point x="1045" y="53" type="line"/>
      <point x="1182" y="694" type="line"/>
    </contour>
    <contour>
      <point x="1062" y="677" type="line"/>
      <point x="931" y="53" type="line"/>
      <point x="527" y="53" type="line"/>
    </contour>
  </outline>
</glyph>
<glyph name="onehalf" format="2">
  <advance width="1339"/>
  <unicode hex="00BD"/>
  <outline>
    <contour>
      <point x="-34" y="-200" type="line"/>
      <point x="-30" y="-200" type="line"/>
      <point x="1272" y="1300" type="line"/>
      <point x="1268" y="1300" type="line"/>
    </contour>
    <contour>
      <point x="156" y="712" type="line"/>
      <point x="534" y="712" type="line"/>
      <point x="534" y="714.4" type="line"/>
      <point x="156" y="714.4" type="line"/>
    </contour>
    <contour>
      <point x="668.8" y="-202" type="line"/>
      <point x="1214.8" y="-202" type="line"/>
      <point x="1256.8" y="-4" type="line"/>
      <point x="1254.4" y="-4" type="line"/>
      <point x="1235.2" y="-94" type="line"/>
      <point x="728.2" y="-94" type="line"/>
      <point x="1129.6" y="224" type="line" smooth="yes"/>
      <point x="1200.4" y="280.4"/>
      <point x="1362.4" y="398.6"/>
      <point x="1362.4" y="518.6" type="curve" smooth="yes"/>
      <point x="1362.4" y="626.6"/>
      <point x="1277.2" y="710"/>
      <point x="1132" y="710" type="curve" smooth="yes"/>
      <point x="952.6" y="710"/>
      <point x="830.2" y="570.8"/>
      <point x="830.2" y="430.4" type="curve" smooth="yes"/>
      <point x="830.2" y="380"/>
      <point x="862" y="352.4"/>
      <point x="904" y="352.4" type="curve" smooth="yes"/>
      <point x="946" y="352.4"/>
      <point x="979" y="381.2"/>
      <point x="979" y="429.2" type="curve" smooth="yes"/>
      <point x="979" y="471.2"/>
      <point x="944.2" y="496.4"/>
      <point x="908.8" y="496.4" type="curve" smooth="yes"/>
      <point x="869.2" y="496.4"/>
      <point x="831.4" y="466.4"/>
      <point x="831.4" y="430.4" type="curve"/>
      <point x="832.6" y="430.4" type="line"/>
      <point x="832.6" y="568.4"/>
      <point x="958.6" y="700.4"/>
      <point x="1096" y="700.4" type="curve" smooth="yes"/>
      <point x="1205.2" y="700.4"/>
      <point x="1242.4" y="603.8"/>
      <point x="1242.4" y="506" type="curve" smooth="yes"/>
      <point x="1242.4" y="369.2"/>
      <point x="1144" y="237.2"/>
      <point x="1034.8" y="151.4" type="curve" smooth="yes"/>
      <point x="685.6" y="-124" type="line"/>
    </contour>
    <contour>
      <point x="288" y="712" type="line"/>
      <point x="402" y="712" type="line"/>
      <point x="606" y="1612" type="line"/>
      <point x="350.4" y="1612" type="line"/>
      <point x="350.4" y="1609.6" type="line"/>
      <point x="490.8" y="1609.6" type="line"/>
    </contour>
  </outline>
</glyph>
<glyph name="threequarters" format="2">
  <advance width="1401"/>
  <unicode hex="00BE"/>
  <outline>
    <contour>
      <point x="86" y="-200" type="line"/>
      <point x="90" y="-200" type="line"/>
      <point x="1392" y="1300" type="line"/>
      <point x="1388" y="1300" type="line"/>
    </contour>
    <contour>
      <point x="894" y="-206" type="line"/>
      <point x="1212" y="-206" type="line"/>
      <point x="1212" y="-203.6" type="line"/>
      <point x="894" y="-203.6" type="line"/>
    </contour>
    <contour>
      <point x="996" y="-206" type="line"/>
      <point x="1110" y="-206" type="line"/>
      <point x="1302" y="694" type="line"/>
      <point x="1194" y="694" type="line"/>
      <point x="642" y="50.8" type="line"/>
      <point x="1302" y="50.8" type="line"/>
      <point x="1302" y="53.2" type="line"/>
      <point x="646.8" y="53.2" type="line"/>
      <point x="1182" y="677.2" type="line"/>
    </contour>
    <contour>
      <point x="417.2" y="696" type="curve" smooth="yes"/>
      <point x="586.4" y="696"/>
      <point x="747.2" y="822"/>
      <point x="747.2" y="972" type="curve" smooth="yes"/>
      <point x="747.2" y="1104.6"/>
      <point x="690.8" y="1197"/>
      <point x="431.6" y="1197" type="curve"/>
      <point x="431.6" y="1195.2" type="line"/>
      <point x="604.4" y="1195.2"/>
      <point x="626" y="1060.8"/>
      <point x="626" y="972" type="curve" smooth="yes"/>
      <point x="626" y="841.2"/>
      <point x="554" y="700.8"/>
      <point x="393.2" y="700.8" type="curve" smooth="yes"/>
      <point x="287.6" y="700.8"/>
      <point x="178.4" y="760.2"/>
      <point x="178.4" y="871.8" type="curve"/>
      <point x="177.2" y="871.8" type="line"/>
      <point x="177.2" y="841.8"/>
      <point x="209.6" y="819"/>
      <point x="244.4" y="819" type="curve" smooth="yes"/>
      <point x="279.8" y="819"/>
      <point x="312.2" y="843.6"/>
      <point x="312.2" y="882" type="curve" smooth="yes"/>
      <point x="312.2" y="925.2"/>
      <point x="284.6" y="948.6"/>
      <point x="248" y="948.6" type="curve" smooth="yes"/>
      <point x="206" y="948.6"/>
      <point x="176" y="921"/>
      <point x="176" y="871.8" type="curve" smooth="yes"/>
      <point x="176" y="784.8"/>
      <point x="246.8" y="696"/>
    </contour>
    <contour>
      <point x="431.6" y="1195.8" type="line"/>
      <point x="708.8" y="1195.8"/>
      <point x="807.2" y="1327.2"/>
      <point x="807.2" y="1447.2" type="curve" smooth="yes"/>
      <point x="807.2" y="1579.8"/>
      <point x="713" y="1618.8"/>
      <point x="579.2" y="1618.8" type="curve" smooth="yes"/>
      <point x="450.8" y="1618.8"/>
      <point x="343.4" y="1527"/>
      <point x="343.4" y="1440" type="curve" smooth="yes"/>
      <point x="343.4" y="1390.8"/>
      <point x="376.4" y="1365.6"/>
      <point x="413" y="1365.6" type="curve" smooth="yes"/>
      <point x="443" y="1365.6"/>
      <point x="480.8" y="1384.2"/>
      <point x="480.8" y="1432.2" type="curve" smooth="yes"/>
      <point x="480.8" y="1474.2"/>
      <point x="448.4" y="1495.8"/>
      <point x="413" y="1495.8" type="curve" smooth="yes"/>
      <point x="382.4" y="1495.8"/>
      <point x="344.6" y="1476"/>
      <point x="344.6" y="1440" type="curve"/>
      <point x="345.8" y="1440" type="line"/>
      <point x="345.8" y="1530"/>
      <point x="457.4" y="1609.8"/>
      <point x="543.2" y="1609.8" type="curve" smooth="yes"/>
      <point x="650" y="1609.8"/>
      <point x="686" y="1554"/>
      <point x="686" y="1465.2" type="curve" smooth="yes"/>
      <point x="686" y="1370.4"/>
      <point x="622.4" y="1197.6"/>
      <point x="431.6" y="1197.6" type="curve"/>
    </contour>
  </outline>
</glyph>
<glyph name="questiondown" format="2">
  <advance width="1099"/>
  <unicode hex="00BF"/>
  <outline>
    <contour>
      <point x="458" y="-480" type="curve" smooth="yes"/>
      <point x="683" y="-480"/>
      <point x="870" y="-306"/>
      <point x="870" y="-142" type="curve" smooth="yes"/>
      <point x="870" y="-60"/>
      <point x="817" y="-19"/>
      <point x="756" y="-19" type="curve" smooth="yes"/>
      <point x="706" y="-19"/>
      <point x="642" y="-50"/>
      <point x="642" y="-130" type="curve" smooth="yes"/>
      <point x="642" y="-200"/>
      <point x="697" y="-239"/>
      <point x="756" y="-239" type="curve" smooth="yes"/>
      <point x="813" y="-239"/>
      <point x="868" y="-202"/>
      <point x="868" y="-142" type="curve"/>
      <point x="866" y="-142" type="line"/>
      <point x="866" y="-300"/>
      <point x="685" y="-475"/>
      <point x="458" y="-475" type="curve" smooth="yes"/>
      <point x="240" y="-475"/>
      <point x="222" y="-308"/>
      <point x="222" y="-140" type="curve" smooth="yes"/>
      <point x="222" y="96"/>
      <point x="426" y="290"/>
      <point x="640" y="352" type="curve"/>
      <point x="698" y="622" type="line"/>
      <point x="694" y="622" type="line"/>
      <point x="638" y="354" type="line"/>
      <point x="356" y="336"/>
      <point x="20" y="140"/>
      <point x="20" y="-140" type="curve" smooth="yes"/>
      <point x="20" y="-360"/>
      <point x="186" y="-480"/>
    </contour>
    <contour>
      <point x="771" y="819" type="curve" smooth="yes"/>
      <point x="837" y="819"/>
      <point x="892" y="874"/>
      <point x="892" y="940" type="curve" smooth="yes"/>
      <point x="892" y="1006"/>
      <point x="837" y="1060"/>
      <point x="771" y="1060" type="curve" smooth="yes"/>
      <point x="705" y="1060"/>
      <point x="652" y="1006"/>
      <point x="652" y="940" type="curve" smooth="yes"/>
      <point x="652" y="874"/>
      <point x="705" y="819"/>
    </contour>
  </outline>
</glyph>
<glyph name="Eth" format="2">
  <advance width="1389"/>
  <unicode hex="00D0"/>
  <anchor x="443" y="0" name="bottom"/>
  <anchor x="443" y="0" name="cedilla"/>
  <anchor x="734" y="1500" name="top"/>
  <outline>
    <contour>
      <point x="145" y="728" type="line"/>
      <point x="729" y="728" type="line"/>
      <point x="729" y="732" type="line"/>
      <point x="145" y="732" type="line"/>
    </contour>
    <component base="D"/>
  </outline>
</glyph>
<glyph name="oslash" format="2">
  <advance width="963"/>
  <unicode hex="00F8"/>
  <outline>
    <contour>
      <point x="-135" y="-246.452" type="line"/>
      <point x="-129" y="-246.452" type="line"/>
      <point x="1165" y="1157.55" type="line"/>
      <point x="1159" y="1157.55" type="line"/>
    </contour>
    <component base="o"/>
  </outline>
</glyph>
<glyph name="idotless" format="2">
  <advance width="637"/>
  <unicode hex="0131"/>
  <anchor x="213" y="0" name="bottom"/>
  <anchor x="306" y="0" name="ogonek"/>
  <anchor x="363" y="920" name="top"/>
  <outline>
    <contour>
      <point x="242" y="-20" type="curve" smooth="yes"/>
      <point x="404" y="-20"/>
      <point x="522" y="126"/>
      <point x="598" y="326" type="curve"/>
      <point x="596" y="328" type="line"/>
      <point x="524" y="136"/>
      <point x="410" y="-2"/>
      <point x="288" y="-2" type="curve" smooth="yes"/>
      <point x="262" y="-2"/>
      <point x="252" y="14"/>
      <point x="252" y="36" type="curve" smooth="yes"/>
      <point x="252" y="46"/>
      <point x="253" y="60"/>
      <point x="256" y="72" type="curve" smooth="yes"/>
      <point x="454" y="920" type="line"/>
      <point x="130" y="920" type="line"/>
      <point x="130" y="916" type="line"/>
      <point x="272" y="916" type="line"/>
      <point x="104" y="170" type="line" smooth="yes"/>
      <point x="101" y="158"/>
      <point x="100" y="136"/>
      <point x="100" y="126" type="curve" smooth="yes"/>
      <point x="100" y="26"/>
      <point x="148" y="-20"/>
    </contour>
  </outline>
</glyph>
<glyph name="lslash" format="2">
  <advance width="575"/>
  <unicode hex="0142"/>
  <outline>
    <contour>
      <point x="50" y="796" type="line"/>
      <point x="620" y="1156" type="line"/>
      <point x="620" y="1160" type="line"/>
      <point x="50" y="800" type="line"/>
    </contour>
    <component base="l"/>
  </outline>
</glyph>
<glyph name="eng" format="2">
  <advance width="1223"/>
  <unicode hex="014B"/>
  <outline>
    <contour>
      <point x="368" y="-520" type="curve" smooth="yes"/>
      <point x="628" y="-520"/>
      <point x="736" y="-283"/>
      <point x="796" y="-23" type="curve" smooth="yes"/>
      <point x="950" y="639" type="line"/>
      <point x="761" y="602" type="line"/>
      <point x="631" y="40" type="line" smooth="yes"/>
      <point x="572.233" y="-214.054"/>
      <point x="548" y="-516"/>
      <point x="368" y="-516" type="curve" smooth="yes"/>
      <point x="208" y="-516"/>
      <point x="150" y="-413"/>
      <point x="176" y="-302" type="curve"/>
      <point x="174" y="-302" type="line"/>
      <point x="160" y="-362"/>
      <point x="211" y="-395"/>
      <point x="269" y="-395" type="curve" smooth="yes"/>
      <point x="336" y="-395"/>
      <point x="389" y="-337"/>
      <point x="401" y="-286" type="curve" smooth="yes"/>
      <point x="419" y="-206"/>
      <point x="365" y="-178"/>
      <point x="315" y="-178" type="curve" smooth="yes"/>
      <point x="254" y="-178"/>
      <point x="191" y="-220"/>
      <point x="172" y="-302" type="curve" smooth="yes"/>
      <point x="146" y="-415"/>
      <point x="206" y="-520"/>
    </contour>
    <contour>
      <point x="-128" y="0" type="line"/>
      <point x="321" y="0" type="line"/>
      <point x="321" y="4" type="line"/>
      <point x="-128" y="4" type="line"/>
    </contour>
    <contour>
      <point x="12" y="0" type="line"/>
      <point x="183" y="0" type="line"/>
      <point x="395" y="920" type="line"/>
      <point x="84" y="920" type="line"/>
      <point x="84" y="916" type="line"/>
      <point x="224" y="916" type="line"/>
    </contour>
    <contour>
      <point x="283" y="451" type="curve"/>
      <point x="287" y="451" type="line"/>
      <point x="326" y="618"/>
      <point x="495" y="912"/>
      <point x="696" y="912" type="curve" smooth="yes"/>
      <point x="803" y="912"/>
      <point x="800" y="770"/>
      <point x="761" y="602" type="curve"/>
      <point x="950" y="639" type="line"/>
      <point x="990" y="813"/>
      <point x="978" y="939"/>
      <point x="749" y="939" type="curve" smooth="yes"/>
      <point x="501" y="939"/>
      <point x="321" y="616"/>
    </contour>
  </outline>
</glyph>
<glyph name="Tbar" format="2">
  <advance width="1243"/>
  <unicode hex="0166"/>
  <outline>
    <contour>
      <point x="382.969" y="748" type="line"/>
      <point x="966.975" y="748" type="line"/>
      <point x="966.975" y="752" type="line"/>
      <point x="382.969" y="752" type="line"/>
    </contour>
    <component base="T"/>
  </outline>
</glyph>
<glyph name="gravecomb" format="2">
  <unicode hex="0300"/>
  <anchor x="740" y="1500" name="_top"/>
  <outline>
    <contour>
      <point x="961" y="1693" type="line"/>
      <point x="963" y="1695" type="line"/>
      <point x="773" y="1926" type="line" smooth="yes"/>
      <point x="731" y="1967"/>
      <point x="680" y="1948"/>
      <point x="661" y="1915" type="curve" smooth="yes"/>
      <point x="642" y="1882"/>
      <point x="656" y="1836"/>
      <point x="688" y="1817" type="curve" smooth="yes"/>
    </contour>
  </outline>
</glyph>
<glyph name="circumflexcomb" format="2">
  <unicode hex="0302"/>
  <anchor x="744" y="1500" name="_top"/>
  <outline>
    <contour>
      <point x="509" y="1716" type="line"/>
      <point x="831" y="1849" type="line"/>
      <point x="1076" y="1716" type="line"/>
      <point x="1077" y="1719" type="line"/>
      <point x="900" y="1939" type="line"/>
      <point x="770" y="1939" type="line"/>
      <point x="506" y="1719" type="line"/>
    </contour>
  </outline>
</glyph>
<glyph name="macroncomb" format="2">
  <unicode hex="0304"/>
  <anchor x="787" y="1500" name="_top"/>
  <outline>
    <contour>
      <point x="547" y="1700" type="line"/>
      <point x="1027" y="1700" type="line"/>
      <point x="1027" y="1704" type="line"/>
      <point x="547" y="1704" type="line"/>
    </contour>
  </outline>
</glyph>
<glyph name="ringcomb" format="2">
  <unicode hex="030A"/>
  <anchor x="772" y="1500" name="_top"/>
  <outline>
    <contour>
      <point x="823" y="1679" type="curve" smooth="yes"/>
      <point x="925" y="1679"/>
      <point x="1003" y="1757"/>
      <point x="1003" y="1859" type="curve" smooth="yes"/>
      <point x="1003" y="1961"/>
      <point x="925" y="2039"/>
      <point x="823" y="2039" type="curve" smooth="yes"/>
      <point x="721" y="2039"/>
      <point x="643" y="1961"/>
      <point x="643" y="1859" type="curve" smooth="yes"/>
      <point x="643" y="1757"/>
      <point x="721" y="1679"/>
    </contour>
    <contour>
      <point x="813" y="1683" type="curve" smooth="yes"/>
      <point x="739" y="1683"/>
      <point x="713" y="1735"/>
      <point x="713" y="1819" type="curve" smooth="yes"/>
      <point x="713" y="1903"/>
      <point x="759" y="2035"/>
      <point x="833" y="2035" type="curve" smooth="yes"/>
      <point x="907" y="2035"/>
      <point x="933" y="1983"/>
      <point x="933" y="1899" type="curve" smooth="yes"/>
      <point x="933" y="1815"/>
      <point x="887" y="1683"/>
    </contour>
  </outline>
</glyph>
<glyph name="caroncomb" format="2">
  <unicode hex="030C"/>
  <anchor x="743" y="1500" name="_top"/>
  <outline>
    <contour>
      <point x="729" y="1700" type="line"/>
      <point x="857" y="1700" type="line"/>
      <point x="1122" y="1921" type="line"/>
      <point x="1118" y="1925" type="line"/>
      <point x="798" y="1790" type="line"/>
      <point x="556" y="1925" type="line"/>
      <point x="552" y="1921" type="line"/>
    </contour>
  </outline>
</glyph>
<glyph name="commaturnedabovecomb" format="2">
  <unicode hex="0312"/>
  <anchor x="592" y="920" name="_top"/>
  <outline>
    <contour>
      <point x="644" y="1100" type="curve" smooth="yes"/>
      <point x="705" y="1100"/>
      <point x="751" y="1147"/>
      <point x="751" y="1199" type="curve" smooth="yes"/>
      <point x="751" y="1248"/>
      <point x="720" y="1289"/>
      <point x="651" y="1289" type="curve" smooth="yes"/>
      <point x="589" y="1289"/>
      <point x="541" y="1246"/>
      <point x="541" y="1187" type="curve"/>
      <point x="543" y="1187" type="line"/>
      <point x="516" y="1348"/>
      <point x="681" y="1519"/>
      <point x="826" y="1519" type="curve"/>
      <point x="826" y="1523" type="line"/>
      <point x="682" y="1523"/>
      <point x="537" y="1367"/>
      <point x="537" y="1223" type="curve" smooth="yes"/>
      <point x="537" y="1139"/>
      <point x="581" y="1100"/>
    </contour>
  </outline>
</glyph>
<glyph name="dotbelowcomb" format="2">
  <unicode hex="0323"/>
  <anchor x="444" y="0" name="_bottom"/>
  <outline>
    <contour>
      <point x="379" y="-410" type="curve" smooth="yes"/>
      <point x="445" y="-410"/>
      <point x="499" y="-355"/>
      <point x="499" y="-289" type="curve" smooth="yes"/>
      <point x="499" y="-223"/>
      <point x="445" y="-169"/>
      <point x="379" y="-169" type="curve" smooth="yes"/>
      <point x="313" y="-169"/>
      <point x="259" y="-223"/>
      <point x="259" y="-289" type="curve" smooth="yes"/>
      <point x="259" y="-355"/>
      <point x="313" y="-410"/>
    </contour>
  </outline>
</glyph>
<glyph name="commaaccentcomb" format="2">
  <unicode hex="0326"/>
  <anchor x="365" y="0" name="_bottom"/>
  <outline>
    <contour>
      <point x="138" y="-623" type="line"/>
      <point x="282" y="-623"/>
      <point x="427" y="-467"/>
      <point x="427" y="-323" type="curve" smooth="yes"/>
      <point x="427" y="-239"/>
      <point x="383" y="-200"/>
      <point x="320" y="-200" type="curve" smooth="yes"/>
      <point x="259" y="-200"/>
      <point x="213" y="-247"/>
      <point x="213" y="-299" type="curve" smooth="yes"/>
      <point x="213" y="-348"/>
      <point x="244" y="-389"/>
      <point x="313" y="-389" type="curve" smooth="yes"/>
      <point x="375" y="-389"/>
      <point x="423" y="-346"/>
      <point x="423" y="-287" type="curve"/>
      <point x="421" y="-287" type="line"/>
      <point x="448" y="-448"/>
      <point x="283" y="-619"/>
      <point x="138" y="-619" type="curve"/>
    </contour>
  </outline>
</glyph>
<glyph name="Germandbls" format="2">
  <advance width="1601"/>
  <unicode hex="1E9E"/>
  <outline>
    <contour>
      <point x="130" y="0" type="line"/>
      <point x="330" y="0" type="line"/>
      <point x="530" y="862" type="line" smooth="yes"/>
      <point x="606" y="1188"/>
      <point x="778" y="1516"/>
      <point x="1126" y="1516" type="curve" smooth="yes"/>
      <point x="1414" y="1516"/>
      <point x="1450" y="1346"/>
      <point x="1450" y="1242" type="curve" smooth="yes"/>
      <point x="1450" y="1114"/>
      <point x="1384" y="814"/>
      <point x="1026" y="814" type="curve"/>
      <point x="1026" y="810" type="line"/>
      <point x="1528" y="810"/>
      <point x="1662" y="1062"/>
      <point x="1662" y="1222" type="curve" smooth="yes"/>
      <point x="1662" y="1388"/>
      <point x="1512" y="1520"/>
      <point x="1126" y="1520" type="curve" smooth="yes"/>
      <point x="720" y="1520"/>
      <point x="418" y="1268"/>
      <point x="330" y="882" type="curve" smooth="yes"/>
    </contour>
    <contour>
      <point x="-50" y="0" type="line"/>
      <point x="510" y="0" type="line"/>
      <point x="510" y="4" type="line"/>
      <point x="-50" y="4" type="line"/>
    </contour>
    <contour>
      <point x="962" y="-20" type="curve" smooth="yes"/>
      <point x="1284" y="-20"/>
      <point x="1542" y="160"/>
      <point x="1542" y="460" type="curve" smooth="yes"/>
      <point x="1542" y="680"/>
      <point x="1428" y="812"/>
      <point x="1026" y="812" type="curve"/>
      <point x="1026" y="808" type="line"/>
      <point x="1284" y="808"/>
      <point x="1330" y="608"/>
      <point x="1330" y="460" type="curve" smooth="yes"/>
      <point x="1330" y="232"/>
      <point x="1200" y="-6"/>
      <point x="922" y="-6" type="curve" smooth="yes"/>
      <point x="692" y="-6"/>
      <point x="600" y="126"/>
      <point x="596" y="252" type="curve"/>
      <point x="604" y="230"/>
      <point x="642" y="180"/>
      <point x="704" y="180" type="curve" smooth="yes"/>
      <point x="762" y="180"/>
      <point x="818" y="226"/>
      <point x="818" y="290" type="curve" smooth="yes"/>
      <point x="818" y="362"/>
      <point x="770" y="402"/>
      <point x="710" y="402" type="curve" smooth="yes"/>
      <point x="640" y="402"/>
      <point x="590" y="354"/>
      <point x="590" y="272" type="curve" smooth="yes"/>
      <point x="590" y="128"/>
      <point x="678" y="-20"/>
    </contour>
  </outline>
</glyph>
<glyph name="quotedblbase" format="2">
  <advance width="819"/>
  <unicode hex="201E"/>
  <outline>
    <contour>
      <point x="315" y="-312" type="line"/>
      <point x="495" y="-312"/>
      <point x="677" y="-118"/>
      <point x="677" y="62" type="curve" smooth="yes"/>
      <point x="677" y="167"/>
      <point x="621" y="216"/>
      <point x="543" y="216" type="curve" smooth="yes"/>
      <point x="467" y="216"/>
      <point x="409" y="158"/>
      <point x="409" y="92" type="curve" smooth="yes"/>
      <point x="409" y="31"/>
      <point x="448" y="-20"/>
      <point x="534" y="-20" type="curve" smooth="yes"/>
      <point x="612" y="-20"/>
      <point x="671" y="34"/>
      <point x="671" y="107" type="curve"/>
      <point x="669" y="107" type="line"/>
      <point x="703" y="-94"/>
      <point x="497" y="-308"/>
      <point x="315" y="-308" type="curve"/>
    </contour>
    <contour>
      <point x="-74" y="-312" type="line"/>
      <point x="106" y="-312"/>
      <point x="288" y="-118"/>
      <point x="288" y="62" type="curve" smooth="yes"/>
      <point x="288" y="167"/>
      <point x="232" y="216"/>
      <point x="154" y="216" type="curve" smooth="yes"/>
      <point x="78" y="216"/>
      <point x="20" y="158"/>
      <point x="20" y="92" type="curve" smooth="yes"/>
      <point x="20" y="31"/>
      <point x="59" y="-20"/>
      <point x="145" y="-20" type="curve" smooth="yes"/>
      <point x="223" y="-20"/>
      <point x="282" y="34"/>
      <point x="282" y="107" type="curve"/>
      <point x="280" y="107" type="line"/>
      <point x="314" y="-94"/>
      <point x="108" y="-308"/>
      <point x="-74" y="-308" type="curve"/>
    </contour>
  </outline>
</glyph>
<glyph name="dagger" format="2">
  <advance width="1186"/>
  <unicode hex="2020"/>
  <outline>
    <contour>
      <point x="266" y="-500" type="curve"/>
      <point x="270" y="-500" type="line"/>
      <point x="385" y="0"/>
      <point x="499" y="350"/>
      <point x="634" y="500" type="curve"/>
      <point x="362" y="500" type="line"/>
      <point x="427" y="350"/>
      <point x="381" y="0"/>
    </contour>
    <contour>
      <point x="362" y="500" type="curve"/>
      <point x="634" y="500" type="line"/>
      <point x="587" y="600"/>
      <point x="565" y="777"/>
      <point x="611" y="977" type="curve"/>
      <point x="607" y="977" type="line"/>
      <point x="561" y="777"/>
      <point x="455" y="600"/>
    </contour>
    <contour>
      <point x="214" y="876" type="curve" smooth="yes"/>
      <point x="226" y="876"/>
      <point x="238" y="876"/>
      <point x="252" y="878" type="curve" smooth="yes"/>
      <point x="407" y="899"/>
      <point x="487" y="975"/>
      <point x="608" y="975" type="curve"/>
      <point x="609" y="979" type="line"/>
      <point x="488" y="979"/>
      <point x="442" y="1053"/>
      <point x="297" y="1074" type="curve" smooth="yes"/>
      <point x="283" y="1076"/>
      <point x="272" y="1076"/>
      <point x="260" y="1076" type="curve" smooth="yes"/>
      <point x="182" y="1076"/>
      <point x="129" y="1035"/>
      <point x="115" y="976" type="curve" smooth="yes"/>
      <point x="101" y="917"/>
      <point x="136" y="876"/>
    </contour>
    <contour>
      <point x="956" y="876" type="curve" smooth="yes"/>
      <point x="1034" y="876"/>
      <point x="1087" y="917"/>
      <point x="1101" y="976" type="curve" smooth="yes"/>
      <point x="1115" y="1035"/>
      <point x="1080" y="1076"/>
      <point x="1002" y="1076" type="curve" smooth="yes"/>
      <point x="990" y="1076"/>
      <point x="979" y="1076"/>
      <point x="965" y="1074" type="curve" smooth="yes"/>
      <point x="810" y="1053"/>
      <point x="730" y="979"/>
      <point x="609" y="979" type="curve"/>
      <point x="608" y="975" type="line"/>
      <point x="729" y="975"/>
      <point x="775" y="899"/>
      <point x="920" y="878" type="curve" smooth="yes"/>
      <point x="934" y="876"/>
      <point x="944" y="876"/>
    </contour>
    <contour>
      <point x="607" y="977" type="curve"/>
      <point x="611" y="977" type="line"/>
      <point x="662" y="1198"/>
      <point x="739" y="1211"/>
      <point x="795" y="1361" type="curve" smooth="yes"/>
      <point x="800" y="1375"/>
      <point x="803" y="1386"/>
      <point x="806" y="1398" type="curve" smooth="yes"/>
      <point x="824" y="1476"/>
      <point x="793" y="1520"/>
      <point x="734" y="1520" type="curve" smooth="yes"/>
      <point x="675" y="1520"/>
      <point x="624" y="1476"/>
      <point x="606" y="1398" type="curve" smooth="yes"/>
      <point x="603" y="1386"/>
      <point x="600" y="1375"/>
      <point x="599" y="1361" type="curve" smooth="yes"/>
      <point x="585" y="1211"/>
      <point x="658" y="1198"/>
    </contour>
  </outline>
</glyph>
<glyph name="euro" format="2">
  <advance width="1419"/>
  <unicode hex="20AC"/>
  <outline>
    <contour>
      <point x="786" y="-20" type="curve" smooth="yes"/>
      <point x="1028" y="-20"/>
      <point x="1235" y="162"/>
      <point x="1307" y="355" type="curve"/>
      <point x="1303" y="355" type="line"/>
      <point x="1234" y="170"/>
      <point x="1032" y="-16"/>
      <point x="786" y="-16" type="curve" smooth="yes"/>
      <point x="568" y="-16"/>
      <point x="538" y="261"/>
      <point x="538" y="490" type="curve" smooth="yes"/>
      <point x="538" y="978"/>
      <point x="780" y="1516"/>
      <point x="1158" y="1516" type="curve" smooth="yes"/>
      <point x="1381" y="1516"/>
      <point x="1480" y="1364"/>
      <point x="1497" y="1287" type="curve"/>
      <point x="1485" y="1307"/>
      <point x="1442" y="1330"/>
      <point x="1396" y="1330" type="curve" smooth="yes"/>
      <point x="1337" y="1330"/>
      <point x="1282" y="1291"/>
      <point x="1282" y="1221" type="curve" smooth="yes"/>
      <point x="1282" y="1141"/>
      <point x="1346" y="1107"/>
      <point x="1396" y="1107" type="curve" smooth="yes"/>
      <point x="1457" y="1107"/>
      <point x="1510" y="1150"/>
      <point x="1510" y="1232" type="curve" smooth="yes"/>
      <point x="1510" y="1336"/>
      <point x="1402" y="1520"/>
      <point x="1158" y="1520" type="curve" smooth="yes"/>
      <point x="717" y="1520"/>
      <point x="311" y="1070"/>
      <point x="311" y="550" type="curve" smooth="yes"/>
      <point x="311" y="150"/>
      <point x="544" y="-20"/>
    </contour>
    <contour>
      <point x="143" y="778" type="line"/>
      <point x="1023" y="778" type="line"/>
      <point x="1023" y="782" type="line"/>
      <point x="143" y="782" type="line"/>
    </contour>
    <contour>
      <point x="143" y="477" type="line"/>
      <point x="1023" y="477" type="line"/>
      <point x="1023" y="481" type="line"/>
      <point x="143" y="481" type="line"/>
    </contour>
  </outline>
</glyph>
<glyph name="notequal" format="2">
  <advance width="1119"/>
  <unicode hex="2260"/>
  <outline>
    <contour>
      <point x="283.478" y="365.361" type="line"/>
      <point x="925.61" y="1282.42" type="line"/>
      <point x="922.333" y="1284.714" type="line"/>
      <point x="280.202" y="367.655" type="line"/>
    </contour>
    <contour>
      <point x="204" y="618" type="line"/>
      <point x="1084" y="618" type="line"/>
      <point x="1084" y="622" type="line"/>
      <point x="204" y="622" type="line"/>
    </contour>
    <contour>
      <point x="204" y="919" type="line"/>
      <point x="1084" y="919" type="line"/>
      <point x="1084" y="923" type="line"/>
      <point x="204" y="923" type="line"/>
    </contour>
  </outline>
</glyph>
<glyph name="curvedStemParagraphSignOrnament" format="2">
  <advance width="1322"/>
  <unicode hex="2761"/>
  <outline>
    <contour>
      <point x="243" y="-94" type="curve" smooth="yes"/>
      <point x="520" y="-94"/>
      <point x="706" y="166"/>
      <point x="773" y="457" type="curve" smooth="yes"/>
      <point x="1037" y="1600" type="line"/>
      <point x="1033" y="1600" type="line"/>
      <point x="767" y="451" type="line" smooth="yes"/>
      <point x="701" y="167"/>
      <point x="515" y="-90"/>
      <point x="244" y="-90" type="curve" smooth="yes"/>
      <point x="25" y="-90"/>
      <point x="-63" y="78"/>
      <point x="-33" y="217" type="curve"/>
      <point x="-19" y="175"/>
      <point x="39" y="129"/>
      <point x="121" y="129" type="curve" smooth="yes"/>
      <point x="201" y="129"/>
      <point x="291" y="185"/>
      <point x="310" y="267" type="curve" smooth="yes"/>
      <point x="334" y="371"/>
      <point x="273" y="432"/>
      <point x="191" y="432" type="curve" smooth="yes"/>
      <point x="99" y="432"/>
      <point x="-3" y="365"/>
      <point x="-37" y="217" type="curve" smooth="yes"/>
      <point x="-70" y="76"/>
      <point x="18" y="-94"/>
    </contour>
    <contour>
      <point x="619" y="619" type="curve" smooth="yes"/>
      <point x="808" y="619" type="line"/>
      <point x="809" y="623" type="line"/>
      <point x="649" y="623" type="line" smooth="yes"/>
      <point x="549" y="623"/>
      <point x="490" y="774"/>
      <point x="544" y="1010" type="curve" smooth="yes"/>
      <point x="598" y="1246"/>
      <point x="728" y="1398"/>
      <point x="828" y="1398" type="curve" smooth="yes"/>
      <point x="1287" y="1398" type="line"/>
      <point x="1288" y="1402" type="line"/>
      <point x="800" y="1402" type="line" smooth="yes"/>
      <point x="439" y="1402"/>
      <point x="214" y="1270"/>
      <point x="154" y="1010" type="curve" smooth="yes"/>
      <point x="94" y="750"/>
      <point x="258" y="619"/>
    </contour>
  </outline>
</glyph>
<glyph name=".notdef" format="2">
  <advance width="1200"/>
  <outline>
    <contour>
      <point x="122" y="0" type="line"/>
      <point x="896" y="0" type="line"/>
      <point x="1226" y="1500" type="line"/>
      <point x="452" y="1500" type="line"/>
    </contour>
    <contour>
      <point x="172" y="39" type="line"/>
      <point x="484" y="1462" type="line"/>
      <point x="1177" y="1462" type="line"/>
      <point x="864" y="39" type="line"/>
    </contour>
    <contour>
      <point x="687.447" y="732.565" type="line"/>
      <point x="794.616" y="794.371"/>
      <point x="847.349" y="789.835"/>
      <point x="927.3" y="822.156" type="curve" smooth="yes"/>
      <point x="970.395" y="840.3"/>
      <point x="997.612" y="878.858"/>
      <point x="977.199" y="915.148" type="curve" smooth="yes"/>
      <point x="954.518" y="955.974"/>
      <point x="908.021" y="943.5"/>
      <point x="871.732" y="918.55" type="curve" smooth="yes"/>
      <point x="804.822" y="865.25"/>
      <point x="773.069" y="829.527"/>
      <point x="665.9" y="767.721" type="curve"/>
    </contour>
    <contour>
      <point x="479.348" y="582.869" type="curve" smooth="yes"/>
      <point x="546.257" y="636.17"/>
      <point x="578.011" y="671.893"/>
      <point x="685.179" y="733.699" type="curve"/>
      <point x="663.632" y="768.855" type="line"/>
      <point x="556.464" y="707.049"/>
      <point x="504.297" y="711.585"/>
      <point x="424.346" y="679.264" type="curve" smooth="yes"/>
      <point x="381.252" y="661.119"/>
      <point x="354.034" y="622.561"/>
      <point x="374.447" y="586.272" type="curve" smooth="yes"/>
      <point x="397.129" y="545.445"/>
      <point x="443.058" y="557.92"/>
    </contour>
    <contour>
      <point x="626.775" y="442.246" type="curve" smooth="yes"/>
      <point x="666.467" y="442.246"/>
      <point x="689.715" y="478.536"/>
      <point x="689.715" y="531.837" type="curve" smooth="yes"/>
      <point x="689.715" y="616.891"/>
      <point x="673.839" y="625.397"/>
      <point x="696.52" y="750.71" type="curve"/>
      <point x="654.56" y="750.71" type="line"/>
      <point x="638.116" y="648.645"/>
      <point x="602.96" y="616.891"/>
      <point x="579.145" y="531.837" type="curve" smooth="yes"/>
      <point x="564.969" y="480.804"/>
      <point x="587.083" y="442.246"/>
    </contour>
    <contour>
      <point x="664.199" y="733.699" type="curve"/>
      <point x="686.313" y="766.587" type="line"/>
      <point x="579.145" y="828.393"/>
      <point x="606.362" y="864.116"/>
      <point x="539.453" y="917.416" type="curve" smooth="yes"/>
      <point x="500.895" y="942.366"/>
      <point x="453.264" y="945.768"/>
      <point x="431.717" y="906.076" type="curve" smooth="yes"/>
      <point x="411.304" y="869.786"/>
      <point x="437.388" y="828.393"/>
      <point x="481.616" y="809.114" type="curve" smooth="yes"/>
      <point x="561.567" y="776.793"/>
      <point x="557.031" y="795.505"/>
    </contour>
    <contour>
      <point x="813.895" y="587.406" type="curve" smooth="yes"/>
      <point x="850.185" y="563.59"/>
      <point x="897.815" y="556.786"/>
      <point x="919.362" y="595.344" type="curve" smooth="yes"/>
      <point x="939.775" y="631.634"/>
      <point x="913.692" y="673.594"/>
      <point x="869.463" y="692.873" type="curve" smooth="yes"/>
      <point x="789.512" y="725.194"/>
      <point x="793.482" y="705.915"/>
      <point x="686.313" y="767.721" type="curve"/>
      <point x="664.199" y="734.833" type="line"/>
      <point x="771.368" y="673.027"/>
      <point x="746.985" y="640.706"/>
    </contour>
    <contour>
      <point x="654.56" y="750.71" type="curve"/>
      <point x="696.52" y="750.71" type="line"/>
      <point x="712.964" y="852.775"/>
      <point x="748.119" y="884.529"/>
      <point x="771.935" y="969.583" type="curve" smooth="yes"/>
      <point x="786.11" y="1020.616"/>
      <point x="763.996" y="1059.174"/>
      <point x="724.304" y="1059.174" type="curve" smooth="yes"/>
      <point x="684.612" y="1059.174"/>
      <point x="661.364" y="1022.884"/>
      <point x="661.364" y="969.583" type="curve" smooth="yes"/>
      <point x="661.364" y="884.529"/>
      <point x="677.241" y="876.023"/>
    </contour>
  </outline>
</glyph>
<glyph name="five.osf" format="2">
  <advance width="1000"/>
  <outline>
    <contour>
      <point x="-6" y="210.971" type="line"/>
      <point x="-2" y="210.971" type="line"/>
      <point x="196" y="749.175" type="line"/>
      <point x="920" y="749.175" type="line"/>
      <point x="979" y="1023.982" type="line"/>
      <point x="975" y="1023.982" type="line"/>
      <point x="953" y="920.335" type="line"/>
      <point x="254" y="920.335" type="line"/>
    </contour>
    <contour>
      <point x="222" y="-525.018" type="curve" smooth="yes"/>
      <point x="524" y="-525.018"/>
      <point x="799" y="-257.818"/>
      <point x="799" y="27.449" type="curve" smooth="yes"/>
      <point x="799" y="274.681"/>
      <point x="656" y="386.886"/>
      <point x="404" y="386.886" type="curve" smooth="yes"/>
      <point x="222" y="386.886"/>
      <point x="68" y="318.422"/>
      <point x="-4" y="210.971" type="curve"/>
      <point x="0" y="210.971" type="line"/>
      <point x="73" y="313.667"/>
      <point x="220" y="380.229"/>
      <point x="380" y="380.229" type="curve" smooth="yes"/>
      <point x="528" y="380.229"/>
      <point x="590" y="206.217"/>
      <point x="590" y="27.449" type="curve" smooth="yes"/>
      <point x="590" y="-190.305"/>
      <point x="460" y="-519.312"/>
      <point x="202" y="-519.312" type="curve" smooth="yes"/>
      <point x="34" y="-519.312"/>
      <point x="-136" y="-403.304"/>
      <point x="-136" y="-260.67" type="curve"/>
      <point x="-138" y="-260.67" type="line"/>
      <point x="-138" y="-308.215"/>
      <point x="-77" y="-353.858"/>
      <point x="-17" y="-353.858" type="curve" smooth="yes"/>
      <point x="42" y="-353.858"/>
      <point x="89" y="-315.822"/>
      <point x="89" y="-249.26" type="curve" smooth="yes"/>
      <point x="89" y="-173.188"/>
      <point x="23" y="-142.76"/>
      <point x="-27" y="-142.76" type="curve" smooth="yes"/>
      <point x="-88" y="-142.76"/>
      <point x="-140" y="-182.697"/>
      <point x="-140" y="-260.67" type="curve" smooth="yes"/>
      <point x="-140" y="-398.549"/>
      <point x="18" y="-525.018"/>
    </contour>
  </outline>
</glyph>
<glyph name="five.tosf" format="2">
  <advance width="1160"/>
  <outline>
    <contour>
      <point x="134" y="210.971" type="line"/>
      <point x="138" y="210.971" type="line"/>
      <point x="336" y="749.175" type="line"/>
      <point x="1060" y="749.175" type="line"/>
      <point x="1119" y="1023.982" type="line"/>
      <point x="1115" y="1023.982" type="line"/>
      <point x="1093" y="920.335" type="line"/>
      <point x="394" y="920.335" type="line"/>
    </contour>
    <contour>
      <point x="362" y="-525.018" type="curve" smooth="yes"/>
      <point x="664" y="-525.018"/>
      <point x="939" y="-257.818"/>
      <point x="939" y="27.449" type="curve" smooth="yes"/>
      <point x="939" y="274.681"/>
      <point x="796" y="386.886"/>
      <point x="544" y="386.886" type="curve" smooth="yes"/>
      <point x="362" y="386.886"/>
      <point x="208" y="318.422"/>
      <point x="136" y="210.971" type="curve"/>
      <point x="140" y="210.971" type="line"/>
      <point x="213" y="313.667"/>
      <point x="360" y="380.229"/>
      <point x="520" y="380.229" type="curve" smooth="yes"/>
      <point x="668" y="380.229"/>
      <point x="730" y="206.217"/>
      <point x="730" y="27.449" type="curve" smooth="yes"/>
      <point x="730" y="-190.305"/>
      <point x="600" y="-519.312"/>
      <point x="342" y="-519.312" type="curve" smooth="yes"/>
      <point x="174" y="-519.312"/>
      <point x="4" y="-403.304"/>
      <point x="4" y="-260.67" type="curve"/>
      <point x="2" y="-260.67" type="line"/>
      <point x="2" y="-308.215"/>
      <point x="63" y="-353.858"/>
      <point x="123" y="-353.858" type="curve" smooth="yes"/>
      <point x="182" y="-353.858"/>
      <point x="229" y="-315.822"/>
      <point x="229" y="-249.26" type="curve" smooth="yes"/>
      <point x="229" y="-173.188"/>
      <point x="163" y="-142.76"/>
      <point x="113" y="-142.76" type="curve" smooth="yes"/>
      <point x="52" y="-142.76"/>
      <point x="0" y="-182.697"/>
      <point x="0" y="-260.67" type="curve" smooth="yes"/>
      <point x="0" y="-398.549"/>
      <point x="158" y="-525.018"/>
    </contour>
  </outline>
</glyph>
<glyph name="nine.osf" format="2">
  <advance width="1119"/>
  <outline>
    <contour>
      <point x="-180" y="-519.961" type="line"/>
      <point x="386" y="-519.961"/>
      <point x="850" y="100.064"/>
      <point x="850" y="503.933" type="curve" smooth="yes"/>
      <point x="850" y="807.309"/>
      <point x="684" y="940.036"/>
      <point x="462" y="940.036" type="curve" smooth="yes"/>
      <point x="160" y="940.036"/>
      <point x="-130" y="636.66"/>
      <point x="-130" y="352.245" type="curve" smooth="yes"/>
      <point x="-130" y="86.791"/>
      <point x="26" y="-8.014"/>
      <point x="188" y="-8.014" type="curve" smooth="yes"/>
      <point x="510" y="-8.014"/>
      <point x="654" y="376.894"/>
      <point x="654" y="598.738" type="curve"/>
      <point x="650" y="598.738" type="line"/>
      <point x="650" y="390.167"/>
      <point x="512" y="12.843"/>
      <point x="232" y="12.843" type="curve" smooth="yes"/>
      <point x="114" y="12.843"/>
      <point x="70" y="155.051"/>
      <point x="70" y="352.245" type="curve" smooth="yes"/>
      <point x="70" y="587.361"/>
      <point x="238" y="936.244"/>
      <point x="456" y="936.244" type="curve" smooth="yes"/>
      <point x="594" y="936.244"/>
      <point x="650" y="776.971"/>
      <point x="650" y="598.738" type="curve"/>
      <point x="648" y="522.894" type="line"/>
      <point x="648" y="82.999"/>
      <point x="248" y="-516.169"/>
      <point x="-180" y="-516.169" type="curve"/>
    </contour>
  </outline>
</glyph>
<glyph name="oe.sc" format="2">
  <advance width="1613"/>
  <outline>
    <contour>
      <point x="645" y="1020" type="curve"/>
      <point x="645" y="1016" type="line"/>
      <point x="447" y="1016"/>
      <point x="278" y="773"/>
      <point x="217" y="510" type="curve" smooth="yes"/>
      <point x="156" y="247"/>
      <point x="193" y="4"/>
      <point x="411" y="4" type="curve"/>
      <point x="411" y="0" type="line"/>
      <point x="105" y="0"/>
      <point x="-87" y="184"/>
      <point x="-12" y="510" type="curve" smooth="yes"/>
      <point x="63" y="836"/>
      <point x="358" y="1020"/>
    </contour>
    <component base="e.sc" xOffset="535"/>
  </outline>
</glyph>
<glyph name="one.osf" format="2">
  <advance width="869"/>
  <outline>
    <contour>
      <point x="240" y="0" type="line"/>
      <point x="431" y="0" type="line"/>
      <point x="639" y="920" type="line"/>
      <point x="234" y="920" type="line"/>
      <point x="234" y="916" type="line"/>
      <point x="430" y="916" type="line"/>
    </contour>
    <contour>
      <point x="35" y="0" type="line"/>
      <point x="665" y="0" type="line"/>
      <point x="665" y="4" type="line"/>
      <point x="35" y="4" type="line"/>
    </contour>
  </outline>
</glyph>
<glyph name="r.sc" format="2">
  <advance width="1085"/>
  <anchor x="415" y="0" name="bottom"/>
  <anchor x="85" y="0" name="cedilla"/>
  <anchor x="570" y="1020" name="top"/>
  <outline>
    <contour>
      <point x="750" y="-20" type="curve" smooth="yes"/>
      <point x="812" y="-20"/>
      <point x="841" y="-8"/>
      <point x="877" y="10" type="curve"/>
      <point x="877" y="14" type="line"/>
      <point x="843" y="-4"/>
      <point x="818" y="-13"/>
      <point x="788" y="-13" type="curve" smooth="yes"/>
      <point x="759" y="-13"/>
      <point x="749" y="4"/>
      <point x="749" y="31" type="curve" smooth="yes"/>
      <point x="749" y="90"/>
      <point x="795" y="199"/>
      <point x="795" y="297" type="curve" smooth="yes"/>
      <point x="795" y="400"/>
      <point x="744" y="492"/>
      <point x="537" y="504" type="curve"/>
      <point x="779" y="512"/>
      <point x="901" y="590"/>
      <point x="936" y="741" type="curve" smooth="yes"/>
      <point x="973" y="901"/>
      <point x="862" y="1020"/>
      <point x="610" y="1020" type="curve" smooth="yes"/>
      <point x="110" y="1020" type="line"/>
      <point x="110" y="1016" type="line"/>
      <point x="230" y="1016" type="line"/>
      <point x="-3" y="4" type="line"/>
      <point x="-124" y="4" type="line"/>
      <point x="-125" y="0" type="line"/>
      <point x="306" y="0" type="line"/>
      <point x="307" y="4" type="line"/>
      <point x="186" y="4" type="line"/>
      <point x="419" y="1016" type="line"/>
      <point x="610" y="1016" type="line" smooth="yes"/>
      <point x="751" y="1016"/>
      <point x="764" y="859"/>
      <point x="737" y="741" type="curve" smooth="yes"/>
      <point x="710" y="623"/>
      <point x="633" y="506"/>
      <point x="492" y="506" type="curve" smooth="yes"/>
      <point x="211" y="506" type="line"/>
      <point x="210" y="502" type="line"/>
      <point x="451" y="502" type="line" smooth="yes"/>
      <point x="587" y="502"/>
      <point x="624" y="450"/>
      <point x="624" y="379" type="curve" smooth="yes"/>
      <point x="624" y="296"/>
      <point x="575" y="188"/>
      <point x="575" y="105" type="curve" smooth="yes"/>
      <point x="575" y="33"/>
      <point x="612" y="-20"/>
    </contour>
  </outline>
</glyph>
<glyph name="seven.tosf" format="2">
  <advance width="1160"/>
  <outline>
    <contour>
      <point x="334" y="-519.947" type="curve" smooth="yes"/>
      <point x="422" y="-519.947"/>
      <point x="472" y="-461.21"/>
      <point x="472" y="-391.105" type="curve" smooth="yes"/>
      <point x="472" y="-252.789"/>
      <point x="326" y="-275.526"/>
      <point x="326" y="-175.105" type="curve" smooth="yes"/>
      <point x="326" y="-89.841"/>
      <point x="474" y="73.106"/>
      <point x="606" y="251.212" type="curve" smooth="yes"/>
      <point x="782" y="488.054"/>
      <point x="1126" y="920.055"/>
      <point x="1126" y="920.055" type="curve"/>
      <point x="216" y="920.055" type="line"/>
      <point x="144" y="597.949" type="line"/>
      <point x="148" y="597.949" type="line"/>
      <point x="182" y="740.055" type="line"/>
      <point x="978" y="740.055" type="line"/>
      <point x="856" y="588.476"/>
      <point x="696" y="376.265"/>
      <point x="602" y="253.107" type="curve" smooth="yes"/>
      <point x="442" y="42.79"/>
      <point x="212" y="-226.263"/>
      <point x="212" y="-375.947" type="curve" smooth="yes"/>
      <point x="212" y="-468.789"/>
      <point x="266" y="-519.947"/>
    </contour>
  </outline>
</glyph>
<glyph name="t.sc" format="2">
  <advance width="1197"/>
  <anchor x="386" y="0" name="bottom"/>
  <anchor x="625" y="1020" name="top"/>
  <outline>
    <contour>
      <point x="123" y="0" type="line"/>
      <point x="653" y="0" type="line"/>
      <point x="654" y="4" type="line"/>
      <point x="485" y="4" type="line"/>
      <point x="718" y="1016" type="line"/>
      <point x="869" y="1016" type="line" smooth="yes"/>
      <point x="1053" y="1016"/>
      <point x="1113" y="864"/>
      <point x="1061" y="640" type="curve"/>
      <point x="1065" y="640" type="line"/>
      <point x="1152" y="1020" type="line"/>
      <point x="95" y="1020" type="line"/>
      <point x="8" y="640" type="line"/>
      <point x="12" y="640" type="line"/>
      <point x="64" y="864"/>
      <point x="195" y="1016"/>
      <point x="379" y="1016" type="curve" smooth="yes"/>
      <point x="527" y="1016" type="line"/>
      <point x="294" y="4" type="line"/>
      <point x="124" y="4" type="line"/>
    </contour>
  </outline>
</glyph>
<glyph name="three.osf" format="2">
  <advance width="1041"/>
  <outline>
    <contour>
      <point x="292" y="-519.96" type="curve" smooth="yes"/>
      <point x="574" y="-519.96"/>
      <point x="842" y="-320.884"/>
      <point x="842" y="-83.889" type="curve" smooth="yes"/>
      <point x="842" y="125.615"/>
      <point x="748" y="271.604"/>
      <point x="316" y="271.604" type="curve"/>
      <point x="316" y="268.76" type="line"/>
      <point x="604" y="268.76"/>
      <point x="640" y="56.412"/>
      <point x="640" y="-83.889" type="curve" smooth="yes"/>
      <point x="640" y="-290.548"/>
      <point x="520" y="-512.376"/>
      <point x="252" y="-512.376" type="curve" smooth="yes"/>
      <point x="76" y="-512.376"/>
      <point x="-106" y="-418.526"/>
      <point x="-106" y="-242.201" type="curve"/>
      <point x="-108" y="-242.201" type="line"/>
      <point x="-108" y="-289.6"/>
      <point x="-54" y="-325.624"/>
      <point x="4" y="-325.624" type="curve" smooth="yes"/>
      <point x="63" y="-325.624"/>
      <point x="117" y="-286.757"/>
      <point x="117" y="-226.086" type="curve" smooth="yes"/>
      <point x="117" y="-157.831"/>
      <point x="71" y="-120.86"/>
      <point x="10" y="-120.86" type="curve" smooth="yes"/>
      <point x="-60" y="-120.86"/>
      <point x="-110" y="-164.467"/>
      <point x="-110" y="-242.201" type="curve" smooth="yes"/>
      <point x="-110" y="-379.659"/>
      <point x="8" y="-519.96"/>
    </contour>
    <contour>
      <point x="316" y="269.708" type="line"/>
      <point x="778" y="269.708"/>
      <point x="942" y="477.315"/>
      <point x="942" y="666.911" type="curve" smooth="yes"/>
      <point x="942" y="876.415"/>
      <point x="785" y="938.034"/>
      <point x="562" y="938.034" type="curve" smooth="yes"/>
      <point x="348" y="938.034"/>
      <point x="169" y="792.993"/>
      <point x="169" y="655.536" type="curve" smooth="yes"/>
      <point x="169" y="577.801"/>
      <point x="224" y="537.986"/>
      <point x="285" y="537.986" type="curve" smooth="yes"/>
      <point x="335" y="537.986"/>
      <point x="398" y="567.373"/>
      <point x="398" y="643.212" type="curve" smooth="yes"/>
      <point x="398" y="709.57"/>
      <point x="344" y="743.698"/>
      <point x="285" y="743.698" type="curve" smooth="yes"/>
      <point x="234" y="743.698"/>
      <point x="171" y="712.414"/>
      <point x="171" y="655.536" type="curve"/>
      <point x="173" y="655.536" type="line"/>
      <point x="173" y="797.733"/>
      <point x="359" y="923.814"/>
      <point x="502" y="923.814" type="curve" smooth="yes"/>
      <point x="680" y="923.814"/>
      <point x="740" y="835.652"/>
      <point x="740" y="695.351" type="curve" smooth="yes"/>
      <point x="740" y="545.57"/>
      <point x="634" y="272.552"/>
      <point x="316" y="272.552" type="curve"/>
    </contour>
  </outline>
</glyph>
<glyph name="three.tosf" format="2">
  <advance width="1160"/>
  <outline>
    <contour>
      <point x="342" y="-519.96" type="curve" smooth="yes"/>
      <point x="624" y="-519.96"/>
      <point x="892" y="-320.884"/>
      <point x="892" y="-83.889" type="curve" smooth="yes"/>
      <point x="892" y="125.615"/>
      <point x="798" y="271.604"/>
      <point x="366" y="271.604" type="curve"/>
      <point x="366" y="268.76" type="line"/>
      <point x="654" y="268.76"/>
      <point x="690" y="56.412"/>
      <point x="690" y="-83.889" type="curve" smooth="yes"/>
      <point x="690" y="-290.548"/>
      <point x="570" y="-512.376"/>
      <point x="302" y="-512.376" type="curve" smooth="yes"/>
      <point x="126" y="-512.376"/>
      <point x="-56" y="-418.526"/>
      <point x="-56" y="-242.201" type="curve"/>
      <point x="-58" y="-242.201" type="line"/>
      <point x="-58" y="-289.6"/>
      <point x="-4" y="-325.624"/>
      <point x="54" y="-325.624" type="curve" smooth="yes"/>
      <point x="113" y="-325.624"/>
      <point x="167" y="-286.757"/>
      <point x="167" y="-226.086" type="curve" smooth="yes"/>
      <point x="167" y="-157.831"/>
      <point x="121" y="-120.86"/>
      <point x="60" y="-120.86" type="curve" smooth="yes"/>
      <point x="-10" y="-120.86"/>
      <point x="-60" y="-164.467"/>
      <point x="-60" y="-242.201" type="curve" smooth="yes"/>
      <point x="-60" y="-379.659"/>
      <point x="58" y="-519.96"/>
    </contour>
    <contour>
      <point x="366" y="269.708" type="line"/>
      <point x="828" y="269.708"/>
      <point x="992" y="477.315"/>
      <point x="992" y="666.911" type="curve" smooth="yes"/>
      <point x="992" y="876.415"/>
      <point x="835" y="938.034"/>
      <point x="612" y="938.034" type="curve" smooth="yes"/>
      <point x="398" y="938.034"/>
      <point x="219" y="792.993"/>
      <point x="219" y="655.536" type="curve" smooth="yes"/>
      <point x="219" y="577.801"/>
      <point x="274" y="537.986"/>
      <point x="335" y="537.986" type="curve" smooth="yes"/>
      <point x="385" y="537.986"/>
      <point x="448" y="567.373"/>
      <point x="448" y="643.212" type="curve" smooth="yes"/>
      <point x="448" y="709.57"/>
      <point x="394" y="743.698"/>
      <point x="335" y="743.698" type="curve" smooth="yes"/>
      <point x="284" y="743.698"/>
      <point x="221" y="712.414"/>
      <point x="221" y="655.536" type="curve"/>
      <point x="223" y="655.536" type="line"/>
      <point x="223" y="797.733"/>
      <point x="409" y="923.814"/>
      <point x="552" y="923.814" type="curve" smooth="yes"/>
      <point x="730" y="923.814"/>
      <point x="790" y="835.652"/>
      <point x="790" y="695.351" type="curve" smooth="yes"/>
      <point x="790" y="545.57"/>
      <point x="684" y="272.552"/>
      <point x="366" y="272.552" type="curve"/>
    </contour>
  </outline>
</glyph>
<glyph name="y.sc" format="2">
  <advance width="1150"/>
  <anchor x="372" y="0" name="bottom"/>
  <anchor x="617" y="1020" name="top"/>
  <outline>
    <contour>
      <point x="280" y="0" type="line"/>
      <point x="470" y="0" type="line"/>
      <point x="580" y="476" type="line"/>
      <point x="1047" y="1016" type="line"/>
      <point x="1042" y="1016" type="line"/>
      <point x="576" y="478" type="line"/>
      <point x="315" y="1020" type="line"/>
      <point x="95" y="1020" type="line"/>
      <point x="380" y="431" type="line"/>
    </contour>
    <contour>
      <point x="150" y="0" type="line"/>
      <point x="620" y="0" type="line"/>
      <point x="621" y="4" type="line"/>
      <point x="151" y="4" type="line"/>
    </contour>
    <contour>
      <point x="25" y="1016" type="line"/>
      <point x="466" y="1016" type="line"/>
      <point x="466" y="1020" type="line"/>
      <point x="25" y="1020" type="line"/>
    </contour>
    <contour>
      <point x="910" y="1016" type="line"/>
      <point x="1155" y="1016" type="line"/>
      <point x="1155" y="1020" type="line"/>
      <point x="910" y="1020" type="line"/>
    </contour>
  </outline>
</glyph>
